# xmcd CD database file
#
# Track frame offsets:
#	150
#	22558
#	50316
#	84807
#	114374
#	142604
#	160977
#	180912
#	200481
#
# Disc length: 2818 seconds
#
# Revision: 0
# Processed by: cddbd v1.5.1PL0 Copyright (c) Steve Scherf et al.
# Submitted via: CDex 1.51
#
DISCID=560b0009
DTITLE=Dalia Faitelson - Movable Clouds
DYEAR=2004
DGENRE=Jazz
TTITLE0=Tolerance
TTITLE1=End of the Day
TTITLE2=Salt Of Tears
TTITLE3=Upon a Cloud
TTITLE4=The Blessing
TTITLE5=Eternal Spring
TTITLE6=A Table For One
TTITLE7=For a Moment Or 2
TTITLE8=Surrender
EXTD=YEAR: 2004
EXTT0=
EXTT1=
EXTT2=
EXTT3=
EXTT4=
EXTT5=
EXTT6=
EXTT7=
EXTT8=
PLAYORDER=
